<?xml version="1.0" encoding="UTF-8" standalone="no"?>
<svg width="260px" height="96px" viewBox="0 0 65 24" version="1.1" xmlns="http://www.w3.org/2000/svg" xmlns:xlink="http://www.w3.org/1999/xlink">
    <!-- Generator: Sketch 3.7.2 (28276) - http://www.bohemiancoding.com/sketch -->
    <title>kujon_title</title>
    <desc>Created with Sketch.</desc>
    <defs></defs>
    <g id="Page-1" stroke="none" stroke-width="1" fill="none" fill-rule="evenodd">
        <g id="kujon_title" fill="#0868FF">
            <g id="Group">
                <path d="M5.161,11.73 C5.826,11.579 6.279,11.201 6.598,10.824 C6.997,10.32 7.929,9.112 8.354,8.457 C8.647,8.004 8.753,7.853 8.274,7.777 L7.662,7.678 L7.662,6.873 L13.143,6.646 L13.143,7.451 L12.212,7.628 C11.334,7.803 10.829,7.98 9.977,8.836 C9.417,9.39 8.912,9.893 7.981,11 C8.567,11.881 11.174,15.129 11.998,16.036 C12.584,16.64 12.904,16.866 13.462,16.968 L13.994,17.068 L13.994,17.875 L9.498,17.875 L5.96,13.116 C5.667,12.713 5.481,12.613 5.294,12.637 L5.161,12.637 L5.161,15.357 C5.161,16.791 5.294,16.918 7.076,17.068 L7.076,17.875 L0,17.875 L0,17.068 C1.889,16.918 2.021,16.791 2.021,15.357 L2.021,3.247 C2.021,1.763 1.968,1.737 0.266,1.612 L0.266,0.882 C1.41,0.705 3.432,0.353 5.161,0 L5.161,11.73 L5.161,11.73 Z" id="Shape"></path>
                <path d="M23.171,9.112 C23.171,8.206 23.038,8.029 22.347,7.929 L21.522,7.803 L21.522,7.074 C22.853,7.024 25.167,6.772 26.417,6.621 L26.417,15.156 C26.417,16.213 26.523,16.49 27.376,16.49 L28.2,16.49 L28.2,17.269 C26.603,17.47 24.901,17.824 23.385,18.175 L23.172,17.999 L23.172,16.388 C22.667,16.742 22.214,17.068 21.629,17.421 C20.805,17.898 20.139,18.175 19.288,18.175 C17.08,18.175 15.856,16.765 15.856,14.827 L15.856,9.112 C15.856,8.206 15.723,8.029 15.031,7.929 L14.313,7.803 L14.313,7.074 C15.537,7.024 17.717,6.772 19.102,6.621 L19.102,14.198 C19.102,15.683 19.899,16.263 20.912,16.263 C21.656,16.263 22.401,15.935 23.173,15.306 L23.173,9.112 L23.171,9.112 Z" id="Shape"></path>
                <path d="M30.913,9.817 C30.913,8.282 30.86,8.257 29.13,8.08 L29.13,7.4 C30.86,7.2 32.615,6.846 34.158,6.494 L34.158,14.827 C34.158,16.741 33.999,17.571 33.467,18.88 C32.536,21.196 29.795,23.513 29.29,23.763 C29.104,23.865 28.865,23.966 28.599,23.966 C28.36,23.966 27.748,23.587 27.748,22.859 C27.748,22.48 27.908,22.179 28.28,22.154 C29.211,22.078 29.876,21.877 30.115,21.574 C30.301,21.347 30.514,20.871 30.674,19.687 C30.861,18.226 30.914,16.388 30.914,14.828 L30.914,9.817 L30.913,9.817 Z M34.265,2.542 C34.265,3.549 33.414,4.355 32.323,4.355 C31.285,4.355 30.381,3.55 30.381,2.542 C30.381,1.51 31.285,0.704 32.323,0.704 C33.414,0.705 34.265,1.51 34.265,2.542 L34.265,2.542 Z" id="Shape"></path>
                <path d="M49.055,12.083 C49.055,16.187 45.996,18.175 42.937,18.175 C38.839,18.175 36.791,15.306 36.791,12.612 C36.791,8.634 40.09,6.494 43.07,6.494 C46.768,6.495 49.055,9.163 49.055,12.083 L49.055,12.083 Z M43.229,17.118 C44.187,17.118 45.384,16.489 45.384,12.838 C45.384,9.491 44.373,7.551 42.67,7.551 C41.579,7.551 40.462,8.885 40.462,11.604 C40.463,14.776 41.527,17.118 43.229,17.118 L43.229,17.118 Z" id="Shape"></path>
                <path d="M64.433,17.874 L58.154,17.874 L58.154,17.067 C59.485,16.917 59.591,16.815 59.591,15.381 L59.591,10.471 C59.591,8.985 58.793,8.407 57.755,8.407 C57.064,8.407 56.238,8.734 55.494,9.339 L55.494,15.381 C55.494,16.815 55.627,16.916 56.771,17.067 L56.771,17.874 L50.333,17.874 L50.333,17.067 C52.114,16.917 52.248,16.815 52.248,15.381 L52.248,9.768 C52.248,8.257 52.195,8.231 50.546,8.056 L50.546,7.376 C52.061,7.201 53.764,6.847 55.494,6.495 L55.494,8.282 C55.999,7.955 56.504,7.628 56.984,7.325 C57.888,6.772 58.474,6.494 59.406,6.494 C61.533,6.494 62.837,7.929 62.837,9.867 L62.837,15.382 C62.837,16.816 62.97,16.917 64.434,17.068 L64.434,17.874 L64.433,17.874 Z" id="Shape"></path>
            </g>
        </g>
    </g>
</svg>