<?xml version="1.0" encoding="UTF-8" standalone="no"?>
<svg width="200px" height="200px" viewBox="0 0 48 48" version="1.1" xmlns="http://www.w3.org/2000/svg" xmlns:xlink="http://www.w3.org/1999/xlink">
    <!-- Generator: Sketch 3.7.2 (28276) - http://www.bohemiancoding.com/sketch -->
    <title>ic_launcher</title>
    <desc>Created with Sketch.</desc>
    <defs></defs>
    <g id="Page-1" stroke="none" stroke-width="1" fill="none" fill-rule="evenodd">
        <g id="ic_launcher">
            <g id="Group">
                <g id="Shape">
                    <path d="M47.9857748,24.3014849 C47.9857748,37.6852174 37.2436291,48 23.9929272,48 C10.7417483,48 0,37.6852174 0,24.3014849 C0,10.9176722 10.7417483,0.067826087 23.9929272,0.067826087 C37.2436291,0.067826087 47.9857748,10.9176722 47.9857748,24.3014849 L47.9857748,24.3014849 Z" fill="#FFFFFF"></path>
                    <g fill="#0868FF">
                        <path d="M47.9857748,24.3014849 C47.9857748,19.3867826 46.536,14.8150635 44.0466755,10.9955318 L40.9542517,17.1533378 C43.6512318,20.7548629 45.2478675,25.2507291 45.2478675,30.1323612 C45.2478675,32.7800669 44.7723179,35.3152375 43.9042649,37.6571237 C46.481245,33.8882408 47.9857748,29.309699 47.9857748,24.3014849 L47.9857748,24.3014849 Z"></path>
                        <path d="M2.73782781,30.1323612 C2.73782781,25.1873177 4.41242384,20.6379933 7.21509934,17.0136722 L4.08238411,10.7752776 C1.50492715,14.6385552 0,19.2923077 0,24.3014849 C0,29.3098595 1.5045298,33.8884013 4.08174834,37.6576856 C3.21369536,35.3156388 2.73782781,32.7802274 2.73782781,30.1323612 L2.73782781,30.1323612 Z"></path>
                        <path d="M15.6857483,10.4268361 C18.270755,9.31023411 21.1150728,8.69064883 24.0964768,8.69064883 C27.0896424,8.69064883 29.9306225,9.3149699 32.5037881,10.4402408 C34.1206887,10.01699 38.6103576,8.93482274 42.4792053,8.85375251 C38.078702,3.48698328 31.4312583,0.067826087 23.9929272,0.067826087 C16.5558675,0.067826087 9.90961589,3.485699 5.50863576,8.85070234 C9.39321854,8.88794649 13.9901722,9.98560535 15.6857483,10.4268361 L15.6857483,10.4268361 Z"></path>
                    </g>
                </g>
                <path d="M41.7518146,20.9622742 C41.6029669,20.780709 41.3929272,20.6611906 41.1621457,20.6271572 C39.9010331,20.4411773 38.6672583,20.3467023 37.4949934,20.3467023 C29.7387815,20.3467023 25.6547285,24.3997324 23.7465695,27.2366288 C21.8379338,24.3997324 17.7538013,20.3467023 9.99774834,20.3467023 C8.82540397,20.3467023 7.59178808,20.4411773 6.33083444,20.6271572 C6.09989404,20.6611104 5.88977483,20.780709 5.74108609,20.9622742 C4.19054305,22.8558662 3.3367947,25.2541003 3.3367947,27.7146221 C3.3367947,33.5595452 8.04484768,38.3145953 13.8317881,38.3145953 C17.0369801,38.3145953 19.9354967,36.8377525 21.8701192,34.509913 L23.6826755,37.5612843 L25.5478411,34.421699 C27.4823841,36.8011505 30.4149934,38.3146756 33.6609536,38.3146756 C39.448053,38.3146756 44.1560265,33.5597057 44.1560265,27.7147023 C44.156106,25.2541003 43.3021192,22.8558662 41.7518146,20.9622742 L41.7518146,20.9622742 Z M13.8317881,36.411612 C9.08360265,36.411612 5.22047682,32.5102074 5.22047682,27.7145418 C5.22047682,25.8166154 5.83986755,23.9640401 6.97049007,22.4582207 C8.01290066,22.3196789 9.02980132,22.2495251 9.99774834,22.2495251 C11.7569801,22.2495251 13.3007682,22.4820602 14.6539868,22.868709 C13.2458543,23.325913 12.2260927,24.6586756 12.2260927,26.2329632 C12.2260927,28.1852308 13.7929272,29.7679465 15.7258808,29.7679465 C17.6588344,29.7679465 19.2256689,28.1852308 19.2256689,26.2329632 C19.2256689,25.7884415 19.1409536,25.3649498 18.9926623,24.9732441 C20.6077351,26.1572709 21.6983046,27.5218194 22.3939868,28.619398 C21.9431523,33.0128428 18.2388079,36.411612 13.8317881,36.411612 L13.8317881,36.411612 Z M33.6609536,36.411612 C29.2539338,36.411612 25.5495099,33.0128428 25.098755,28.619398 C25.5914702,27.8418462 26.2873113,26.931291 27.2224371,26.0452174 C27.2190993,26.1078261 27.2129801,26.1696321 27.2129801,26.2330435 C27.2129801,28.185311 28.7798146,29.7680268 30.7126093,29.7680268 C32.6455629,29.7680268 34.2124768,28.185311 34.2124768,26.2330435 C34.2124768,24.8327759 33.4042649,23.626194 32.2348609,23.0538863 C33.7277086,22.5573512 35.4689801,22.2496856 37.4949934,22.2496856 C38.4630993,22.2496856 39.4798411,22.3198395 40.5224901,22.4583813 C41.6530331,23.9642007 42.2720265,25.8167759 42.2720265,27.7147023 C42.2720265,32.5101271 38.409298,36.411612 33.6609536,36.411612 L33.6609536,36.411612 Z" id="Shape" fill="#0868FF"></path>
            </g>
        </g>
    </g>
</svg>